<svg xmlns="http://www.w3.org/2000/svg" xmlns:xlink="http://www.w3.org/1999/xlink" preserveAspectRatio="xMidYMid" width="42" height="43" viewBox="0 0 42 43">
  <defs>
    <style>

      .cls-2 {
        fill: #ffffff;
      }
    </style>
  </defs>
  <path d="M38.728,11.311 C38.728,11.311 18.215,24.023 18.215,24.023 C18.215,24.023 30.894,3.658 30.894,3.658 C30.894,3.658 42.381,0.014 42.381,0.014 C42.381,0.014 38.728,11.311 38.728,11.311 ZM38.916,14.758 C38.916,14.758 35.258,28.362 31.973,42.261 C24.710,31.161 11.045,34.924 2.462,39.789 C2.462,39.789 2.874,39.362 2.874,39.362 C2.874,39.362 2.460,39.761 2.460,39.761 C7.324,31.178 11.088,17.513 -0.012,10.250 C13.886,6.965 27.491,3.307 27.491,3.307 C27.491,3.307 10.087,32.152 10.087,32.152 C10.087,32.152 38.916,14.758 38.916,14.758 Z" id="path-1" class="cls-2" fill-rule="evenodd"/>
</svg>
