<svg xmlns="http://www.w3.org/2000/svg" xmlns:xlink="http://www.w3.org/1999/xlink" preserveAspectRatio="xMidYMid" width="22" height="19" viewBox="0 0 22 19">
  <defs>
    <style>

      .cls-2 {
        fill: #12aaeb;
      }
    </style>
  </defs>
  <path d="M21.512,1.361 C21.512,1.361 11.557,17.968 11.557,17.968 C11.412,18.162 11.169,18.307 10.926,18.307 C10.635,18.307 10.392,18.113 10.246,17.870 C10.246,17.870 7.139,11.139 7.139,11.139 C7.139,11.139 0.389,7.576 0.389,7.576 C0.146,7.431 -0.048,7.139 0.001,6.848 C0.049,6.557 0.243,6.314 0.535,6.217 C0.535,6.217 20.674,0.098 20.674,0.098 C20.953,-0.044 21.291,-0.024 21.511,0.196 C21.519,0.203 21.525,0.211 21.532,0.219 C21.598,0.279 21.656,0.353 21.705,0.439 C21.851,0.778 21.754,1.118 21.512,1.361 ZM11.023,16.025 C11.023,16.025 18.495,3.587 18.495,3.587 C18.495,3.587 11.334,8.874 11.334,8.874 C9.806,10.012 8.644,10.878 8.644,10.878 C8.644,10.878 11.023,16.025 11.023,16.025 ZM7.636,9.791 C7.636,9.791 17.169,2.693 17.169,2.693 C17.169,2.693 2.623,7.139 2.623,7.139 C2.623,7.139 7.636,9.791 7.636,9.791 Z" id="path-1" class="cls-2" fill-rule="evenodd"/>
</svg>
