<svg xmlns="http://www.w3.org/2000/svg" xmlns:xlink="http://www.w3.org/1999/xlink" preserveAspectRatio="xMidYMid" width="609" height="612" viewBox="0 0 609 612">
  <defs>
    <style>

      .cls-2 {
        fill: #000000;
      }
    </style>
  </defs>
  <path d="M596.096,190.161 C596.096,190.161 367.813,264.309 367.813,264.309 C366.551,264.719 365.248,264.920 363.955,264.920 C361.346,264.920 358.771,264.104 356.610,262.534 C353.374,260.184 351.458,256.428 351.458,252.429 C351.458,252.429 351.458,12.490 351.458,12.490 C351.458,5.592 357.053,-0.000 363.953,-0.000 C475.392,-0.000 569.662,68.464 604.117,174.421 C605.142,177.571 604.873,181.000 603.368,183.951 C601.865,186.904 599.248,189.137 596.096,190.161 ZM376.447,25.301 C376.447,25.301 376.447,235.239 376.447,235.239 C376.447,235.239 576.185,170.362 576.185,170.362 C543.669,85.490 467.230,29.977 376.447,25.301 ZM596.737,269.372 C618.000,334.729 612.519,404.448 581.299,465.688 C550.086,526.923 478.887,606.183 351.951,606.183 C345.051,606.183 339.456,600.592 339.456,593.694 C339.456,593.694 339.456,348.886 339.456,348.886 C339.456,343.476 342.944,338.679 348.090,337.007 C348.090,337.007 580.994,261.356 580.994,261.356 C587.556,259.224 594.604,262.814 596.737,269.372 ZM364.446,357.960 C364.446,357.960 364.446,580.918 364.446,580.918 C467.853,572.705 530.853,509.637 559.036,454.346 C585.322,402.781 591.398,344.552 576.528,289.074 C576.528,289.074 364.446,357.960 364.446,357.960 ZM286.681,612.000 C210.103,612.000 138.110,582.192 83.965,528.066 C29.820,473.940 0.000,401.977 0.000,325.429 C0.000,248.882 29.820,176.917 83.965,122.791 C138.113,68.664 210.105,38.854 286.681,38.854 C293.583,38.854 299.175,44.446 299.175,51.344 C299.175,51.344 299.175,599.510 299.175,599.510 C299.175,606.408 293.582,612.000 286.681,612.000 ZM274.187,64.130 C135.675,70.676 24.989,185.376 24.989,325.429 C24.989,465.480 135.675,580.180 274.187,586.726 C274.187,586.726 274.187,64.130 274.187,64.130 Z" id="path-1" class="cls-2" fill-rule="evenodd"/>
</svg>
