<svg xmlns="http://www.w3.org/2000/svg" xmlns:xlink="http://www.w3.org/1999/xlink" preserveAspectRatio="xMidYMid" width="10" height="6" viewBox="0 0 10 6">
  <defs>
    <style>

      .cls-2 {
        fill: #ffffff;
      }
    </style>
  </defs>
  <path d="M9.265,1.073 C9.265,1.073 4.983,5.739 4.983,5.739 C4.907,5.814 4.807,5.847 4.708,5.842 C4.610,5.847 4.510,5.814 4.434,5.739 C4.434,5.739 0.146,1.066 0.146,1.066 C0.004,0.924 -0.095,0.485 0.146,0.231 C0.418,-0.056 0.856,-0.005 0.998,0.137 C0.998,0.137 4.708,4.209 4.708,4.209 C4.708,4.209 8.419,0.137 8.419,0.137 C8.561,-0.005 9.042,-0.105 9.283,0.176 C9.513,0.446 9.406,0.931 9.265,1.073 Z" id="path-1" class="cls-2" fill-rule="evenodd"/>
</svg>
