<svg xmlns="http://www.w3.org/2000/svg" xmlns:xlink="http://www.w3.org/1999/xlink" preserveAspectRatio="xMidYMid" width="95" height="61" viewBox="0 0 95 61">
  <defs>
    <style>

      .cls-2 {
        fill: #000000;
      }
    </style>
  </defs>
  <path d="M95.633,41.025 C95.633,41.025 64.850,41.025 64.850,41.025 C64.850,52.095 75.305,51.395 75.305,51.395 C85.178,51.395 84.829,44.985 84.829,44.985 C84.829,44.985 95.286,44.985 95.286,44.985 C95.286,61.997 74.955,60.833 74.955,60.833 C50.562,60.833 52.129,38.055 52.129,38.055 C52.129,38.055 52.108,15.163 74.955,15.163 C99.000,15.163 95.633,41.025 95.633,41.025 ZM75.187,23.889 C66.011,23.889 64.732,33.074 64.732,33.074 C64.732,33.074 84.247,33.074 84.247,33.074 C84.247,33.074 84.365,23.888 75.187,23.889 ZM62.175,3.512 C62.175,3.512 86.686,3.512 86.686,3.512 C86.686,3.512 86.686,10.850 86.686,10.850 C86.686,10.850 62.175,10.850 62.175,10.850 C62.175,10.850 62.175,3.512 62.175,3.512 ZM49.785,42.000 C49.785,60.185 30.913,59.586 30.913,59.586 C30.913,59.586 13.621,59.586 13.621,59.586 C13.621,59.586 13.113,59.586 13.113,59.586 C13.113,59.586 -0.000,59.586 -0.000,59.586 C-0.000,59.586 -0.000,0.002 -0.000,0.002 C-0.000,0.002 13.113,0.002 13.113,0.002 C13.113,0.002 13.621,0.002 13.621,0.002 C13.621,0.002 30.913,0.002 30.913,0.002 C40.309,0.002 47.725,5.204 47.725,15.866 C47.725,26.530 38.661,27.205 38.661,27.205 C50.610,27.205 49.785,42.000 49.785,42.000 ZM30.914,10.594 C30.914,10.594 28.688,10.594 28.688,10.594 C28.688,10.594 13.621,10.594 13.621,10.594 C13.621,10.594 13.621,23.889 13.621,23.889 C13.621,23.889 29.842,23.889 29.842,23.889 C32.644,23.889 35.117,22.991 35.117,16.793 C35.117,10.594 30.914,10.594 30.914,10.594 ZM30.913,33.074 C30.913,33.074 13.621,33.074 13.621,33.074 C13.621,33.074 13.621,48.999 13.621,48.999 C13.621,48.999 30.116,48.999 30.116,48.999 C32.596,48.928 37.177,48.148 37.177,41.257 C37.177,32.992 30.913,33.074 30.913,33.074 Z" id="path-1" class="cls-2" fill-rule="evenodd"/>
</svg>
