<svg xmlns="http://www.w3.org/2000/svg" xmlns:xlink="http://www.w3.org/1999/xlink" preserveAspectRatio="xMidYMid" width="18" height="17" viewBox="0 0 18 17">
  <defs>
    <style>

      .cls-2 {
        fill: #12aaeb;
      }
    </style>
  </defs>
  <path d="M17.341,16.619 C17.341,16.619 0.628,16.619 0.628,16.619 C0.287,16.619 -0.008,16.341 -0.008,16.000 C-0.008,16.000 -0.008,1.818 -0.008,1.818 C-0.008,1.461 0.271,1.183 0.628,1.183 C0.628,1.183 3.880,1.183 3.880,1.183 C3.880,1.183 3.880,0.641 3.880,0.641 C3.880,0.285 4.159,0.006 4.516,0.006 C4.872,0.006 5.151,0.285 5.151,0.641 C5.151,0.641 5.151,1.183 5.151,1.183 C5.151,1.183 12.927,1.183 12.927,1.183 C12.927,1.183 12.927,0.641 12.927,0.641 C12.927,0.285 13.206,0.006 13.562,0.006 C13.918,0.006 14.197,0.285 14.197,0.641 C14.197,0.641 14.197,1.183 14.197,1.183 C14.197,1.183 17.341,1.183 17.341,1.183 C17.698,1.183 17.977,1.461 17.977,1.818 C17.977,1.818 17.977,15.985 17.977,15.985 C17.977,16.341 17.698,16.619 17.341,16.619 ZM1.263,15.365 C1.263,15.365 16.706,15.365 16.706,15.365 C16.706,15.365 16.706,5.363 16.706,5.363 C16.706,5.363 1.263,5.363 1.263,5.363 C1.263,5.363 1.263,15.365 1.263,15.365 ZM16.722,2.452 C16.722,2.452 14.197,2.452 14.197,2.452 C14.197,2.452 14.197,2.793 14.197,2.793 C14.197,3.149 13.918,3.428 13.562,3.428 C13.206,3.428 12.927,3.149 12.927,2.793 C12.927,2.793 12.927,2.452 12.927,2.452 C12.927,2.452 5.151,2.452 5.151,2.452 C5.151,2.452 5.151,2.793 5.151,2.793 C5.151,3.149 4.872,3.428 4.516,3.428 C4.159,3.428 3.880,3.149 3.880,2.793 C3.880,2.793 3.880,2.452 3.880,2.452 C3.880,2.452 1.263,2.452 1.263,2.452 C1.263,2.452 1.263,4.094 1.263,4.094 C1.263,4.094 16.722,4.094 16.722,4.094 C16.722,4.094 16.722,2.452 16.722,2.452 ZM13.562,9.544 C13.562,9.544 4.423,9.544 4.423,9.544 C4.066,9.544 3.788,9.265 3.788,8.909 C3.788,8.553 4.066,8.274 4.423,8.274 C4.423,8.274 13.562,8.274 13.562,8.274 C13.918,8.274 14.197,8.553 14.197,8.909 C14.197,9.265 13.918,9.544 13.562,9.544 ZM4.423,11.340 C4.423,11.340 8.992,11.340 8.992,11.340 C9.349,11.340 9.627,11.618 9.627,11.975 C9.627,12.331 9.349,12.609 8.992,12.609 C8.992,12.609 4.423,12.609 4.423,12.609 C4.066,12.609 3.788,12.331 3.788,11.975 C3.788,11.618 4.066,11.340 4.423,11.340 Z" id="path-1" class="cls-2" fill-rule="evenodd"/>
</svg>
