<svg xmlns="http://www.w3.org/2000/svg" xmlns:xlink="http://www.w3.org/1999/xlink" preserveAspectRatio="xMidYMid" width="36" height="36" viewBox="0 0 36 36">
  <defs>
    <style>

      .cls-2 {
        fill: #ffffff;
      }
    </style>
  </defs>
  <path d="M18.000,36.000 C8.075,36.000 0.001,27.925 0.001,18.000 C0.001,8.074 8.075,0.000 18.000,0.000 C27.925,0.000 35.999,8.074 35.999,18.000 C36.001,27.925 27.925,36.000 18.000,36.000 ZM18.000,2.056 C9.208,2.056 2.057,9.209 2.057,18.000 C2.057,26.790 9.208,33.942 18.000,33.942 C26.791,33.942 33.942,26.790 33.942,18.000 C33.942,9.209 26.791,2.056 18.000,2.056 ZM25.097,19.028 C25.097,19.028 19.028,19.028 19.028,19.028 C19.028,19.028 19.028,25.097 19.028,25.097 C19.028,25.666 18.569,26.125 18.000,26.125 C17.432,26.125 16.971,25.665 16.971,25.097 C16.971,25.097 16.971,19.028 16.971,19.028 C16.971,19.028 10.903,19.028 10.903,19.028 C10.335,19.028 9.874,18.569 9.874,18.000 C9.874,17.432 10.334,16.970 10.903,16.970 C10.903,16.970 16.971,16.970 16.971,16.970 C16.971,16.970 16.971,10.902 16.971,10.902 C16.971,10.334 17.432,9.873 18.000,9.873 C18.568,9.873 19.028,10.334 19.028,10.902 C19.028,10.902 19.028,16.970 19.028,16.970 C19.028,16.970 25.097,16.970 25.097,16.970 C25.665,16.970 26.125,17.432 26.125,18.000 C26.125,18.569 25.666,19.028 25.097,19.028 Z" id="path-1" class="cls-2" fill-rule="evenodd"/>
</svg>
