<svg xmlns="http://www.w3.org/2000/svg" xmlns:xlink="http://www.w3.org/1999/xlink" preserveAspectRatio="xMidYMid" width="18" height="18" viewBox="0 0 18 18">
  <defs>
    <style>

      .cls-2 {
        fill: #12aaeb;
      }
    </style>
  </defs>
  <path d="M8.605,17.242 C3.845,17.242 -0.015,13.383 -0.015,8.622 C-0.015,3.862 3.845,0.002 8.605,0.002 C13.366,0.002 17.226,3.862 17.226,8.622 C17.226,13.383 13.366,17.242 8.605,17.242 ZM8.605,1.664 C4.763,1.664 1.648,4.779 1.648,8.622 C1.648,12.464 4.763,15.579 8.605,15.579 C12.448,15.579 15.563,12.464 15.563,8.622 C15.563,4.779 12.448,1.664 8.605,1.664 ZM7.929,8.902 C7.929,8.902 7.929,3.597 7.929,3.597 C7.929,3.597 9.282,3.597 9.282,3.597 C9.282,3.597 9.282,8.341 9.282,8.341 C9.282,8.341 12.176,11.236 12.176,11.236 C12.176,11.236 11.219,12.192 11.219,12.192 C11.219,12.192 7.929,8.902 7.929,8.902 Z" id="path-1" class="cls-2" fill-rule="evenodd"/>
</svg>
