<svg xmlns="http://www.w3.org/2000/svg" xmlns:xlink="http://www.w3.org/1999/xlink" preserveAspectRatio="xMidYMid" width="36" height="36" viewBox="0 0 36 36">
  <defs>
    <style>

      .cls-2 {
        fill: #6587a8;
      }
    </style>
  </defs>
  <path d="M0.357,35.080 C0.601,35.323 0.906,35.446 1.242,35.446 C1.577,35.446 1.882,35.323 2.126,35.080 C2.126,35.080 17.712,19.497 17.712,19.497 C17.712,19.497 33.297,35.080 33.297,35.080 C33.541,35.323 33.846,35.446 34.182,35.446 C34.487,35.446 34.822,35.323 35.066,35.080 C35.554,34.592 35.554,33.799 35.066,33.311 C35.066,33.311 19.481,17.728 19.481,17.728 C19.481,17.728 35.066,2.146 35.066,2.146 C35.554,1.658 35.554,0.865 35.066,0.377 C34.578,-0.111 33.785,-0.111 33.297,0.377 C33.297,0.377 17.712,15.960 17.712,15.960 C17.712,15.960 2.126,0.377 2.126,0.377 C1.638,-0.111 0.845,-0.111 0.357,0.377 C-0.131,0.865 -0.131,1.658 0.357,2.146 C0.357,2.146 15.943,17.728 15.943,17.728 C15.943,17.728 0.357,33.311 0.357,33.311 C-0.131,33.799 -0.131,34.592 0.357,35.080 Z" id="path-1" class="cls-2" fill-rule="evenodd"/>
</svg>
