<svg xmlns="http://www.w3.org/2000/svg" xmlns:xlink="http://www.w3.org/1999/xlink" preserveAspectRatio="xMidYMid" width="17" height="18" viewBox="0 0 17 18">
  <defs>
    <style>

      .cls-2 {
        fill: #12aaeb;
      }
    </style>
  </defs>
  <path d="M8.658,17.402 C7.533,17.402 6.471,17.211 5.444,16.799 C4.749,17.112 4.000,17.257 3.222,17.257 C2.274,17.257 1.325,17.001 0.486,16.527 C0.231,16.381 0.121,16.052 0.304,15.761 C0.378,15.630 0.500,15.538 0.641,15.503 C1.203,15.237 1.699,14.860 2.109,14.391 C0.759,12.809 0.012,10.842 0.012,8.719 C0.012,8.355 0.048,7.990 0.085,7.661 C0.121,7.443 0.158,7.224 0.194,6.968 C0.960,2.919 4.536,0.000 8.658,0.000 C13.438,0.000 17.341,3.904 17.341,8.683 C17.341,13.499 13.474,17.402 8.658,17.402 ZM8.658,1.131 C5.046,1.131 1.909,3.685 1.216,7.224 C1.179,7.406 1.143,7.625 1.143,7.807 C1.106,8.099 1.070,8.391 1.070,8.719 C1.070,10.620 1.783,12.453 3.079,13.858 C3.103,13.870 3.126,13.884 3.149,13.900 C3.359,14.050 3.445,14.297 3.369,14.522 C3.345,14.614 3.297,14.701 3.222,14.776 C3.217,14.781 3.211,14.786 3.206,14.791 C2.865,15.255 2.467,15.659 2.018,15.991 C2.420,16.107 2.839,16.162 3.259,16.162 C3.912,16.162 4.533,16.032 5.122,15.742 C5.160,15.716 5.202,15.695 5.246,15.679 C5.425,15.586 5.636,15.614 5.795,15.740 C6.704,16.108 7.648,16.308 8.658,16.308 C12.854,16.308 16.247,12.915 16.247,8.719 C16.247,4.524 12.854,1.131 8.658,1.131 ZM12.562,9.704 C11.998,9.704 11.540,9.247 11.540,8.683 C11.540,8.119 11.998,7.661 12.562,7.661 C13.126,7.661 13.583,8.119 13.583,8.683 C13.583,9.247 13.126,9.704 12.562,9.704 ZM8.658,9.704 C8.094,9.704 7.637,9.247 7.637,8.683 C7.637,8.119 8.094,7.661 8.658,7.661 C9.222,7.661 9.680,8.119 9.680,8.683 C9.680,9.247 9.222,9.704 8.658,9.704 ZM4.718,9.704 C4.154,9.704 3.697,9.247 3.697,8.683 C3.697,8.119 4.154,7.661 4.718,7.661 C5.282,7.661 5.740,8.119 5.740,8.683 C5.740,9.247 5.282,9.704 4.718,9.704 Z" id="path-1" class="cls-2" fill-rule="evenodd"/>
</svg>
