<svg xmlns="http://www.w3.org/2000/svg" xmlns:xlink="http://www.w3.org/1999/xlink" preserveAspectRatio="xMidYMid" width="43" height="30" viewBox="0 0 43 30">
  <defs>
    <style>

      .cls-2 {
        fill: #00aeef;
      }
    </style>
  </defs>
  <path d="M42.122,30.000 C42.122,30.000 28.639,30.000 28.639,30.000 C28.155,30.000 27.762,29.611 27.762,29.130 C27.762,29.130 27.762,25.804 27.762,25.804 C27.762,25.804 22.718,25.804 22.718,25.804 C22.718,25.804 22.718,28.261 22.718,28.261 C22.718,28.261 24.708,28.261 24.708,28.261 C25.193,28.261 25.585,28.650 25.585,29.130 C25.585,29.611 25.193,30.000 24.708,30.000 C24.708,30.000 13.865,30.000 13.865,30.000 C13.381,30.000 12.988,29.611 12.988,29.130 C12.988,28.650 13.381,28.261 13.865,28.261 C13.865,28.261 15.855,28.261 15.855,28.261 C15.855,28.261 15.855,25.804 15.855,25.804 C15.855,25.804 0.878,25.804 0.878,25.804 C0.393,25.804 0.000,25.415 0.000,24.935 C0.000,24.935 0.000,0.870 0.000,0.870 C0.000,0.389 0.393,0.000 0.878,0.000 C0.878,0.000 37.115,0.000 37.115,0.000 C37.600,0.000 37.993,0.389 37.993,0.870 C37.993,0.870 37.993,10.388 37.993,10.388 C37.993,10.388 42.122,10.388 42.122,10.388 C42.607,10.388 43.000,10.777 43.000,11.258 C43.000,11.258 43.000,29.130 43.000,29.130 C43.000,29.611 42.607,30.000 42.122,30.000 ZM17.610,28.261 C17.610,28.261 20.963,28.261 20.963,28.261 C20.963,28.261 20.963,25.804 20.963,25.804 C20.963,25.804 17.610,25.804 17.610,25.804 C17.610,25.804 17.610,28.261 17.610,28.261 ZM1.755,24.065 C1.755,24.065 27.762,24.065 27.762,24.065 C27.762,24.065 27.762,19.088 27.762,19.088 C27.762,19.088 1.755,19.088 1.755,19.088 C1.755,19.088 1.755,24.065 1.755,24.065 ZM36.238,1.739 C36.238,1.739 1.755,1.739 1.755,1.739 C1.755,1.739 1.755,17.349 1.755,17.349 C1.755,17.349 27.762,17.349 27.762,17.349 C27.762,17.349 27.762,11.258 27.762,11.258 C27.762,10.777 28.155,10.388 28.639,10.388 C28.639,10.388 36.238,10.388 36.238,10.388 C36.238,10.388 36.238,1.739 36.238,1.739 ZM41.245,12.127 C41.245,12.127 29.517,12.127 29.517,12.127 C29.517,12.127 29.517,24.065 29.517,24.065 C29.517,24.065 41.245,24.065 41.245,24.065 C41.245,24.065 41.245,12.127 41.245,12.127 ZM41.245,25.804 C41.245,25.804 29.517,25.804 29.517,25.804 C29.517,25.804 29.517,28.261 29.517,28.261 C29.517,28.261 41.245,28.261 41.245,28.261 C41.245,28.261 41.245,25.804 41.245,25.804 ZM35.381,26.452 C35.705,26.452 35.967,26.712 35.967,27.033 C35.967,27.354 35.705,27.614 35.381,27.614 C35.057,27.614 34.794,27.354 34.794,27.033 C34.794,26.712 35.057,26.452 35.381,26.452 ZM18.996,22.125 C18.591,22.125 18.263,21.800 18.263,21.398 C18.263,20.997 18.591,20.672 18.996,20.672 C19.401,20.672 19.729,20.997 19.729,21.398 C19.729,21.800 19.401,22.125 18.996,22.125 Z" id="path-1" class="cls-2" fill-rule="evenodd"/>
</svg>
