<svg xmlns="http://www.w3.org/2000/svg" xmlns:xlink="http://www.w3.org/1999/xlink" preserveAspectRatio="xMidYMid" width="10" height="17" viewBox="0 0 10 17">
  <defs>
    <style>

      .cls-2 {
        fill: #ffffff;
      }
    </style>
  </defs>
  <path d="M-0.006,5.889 C-0.006,5.889 -0.006,5.889 -0.006,5.889 C-0.006,5.889 -0.006,9.073 -0.006,9.073 C-0.006,9.073 2.498,9.073 2.498,9.073 C2.498,9.073 2.498,16.476 2.498,16.476 C2.498,16.476 6.544,16.476 6.544,16.476 C6.544,16.476 6.544,9.073 6.544,9.073 C6.544,9.073 9.890,9.073 9.890,9.073 C9.890,9.073 9.890,5.889 9.890,5.889 C9.890,5.889 6.544,5.889 6.544,5.889 C6.544,5.889 6.544,4.364 6.544,4.364 C6.544,3.820 6.871,3.385 7.170,3.385 C7.170,3.385 9.890,3.385 9.890,3.385 C9.890,3.385 9.890,-0.014 9.890,-0.014 C9.890,-0.014 6.631,-0.014 6.631,-0.014 C4.536,-0.014 2.498,1.675 2.498,3.987 C2.498,3.987 2.498,5.889 2.498,5.889 C2.498,5.889 -0.006,5.889 -0.006,5.889 Z" id="path-1" class="cls-2" fill-rule="evenodd"/>
</svg>
