<svg xmlns="http://www.w3.org/2000/svg" xmlns:xlink="http://www.w3.org/1999/xlink" preserveAspectRatio="xMidYMid" width="36" height="36" viewBox="0 0 36 36">
  <defs>
    <style>

      .cls-2 {
        fill: #00aeef;
      }
    </style>
  </defs>
  <path d="M35.265,9.729 C35.265,9.729 32.043,9.729 32.043,9.729 C31.637,9.729 31.308,9.395 31.308,8.983 C31.308,8.571 31.637,8.236 32.043,8.236 C32.043,8.236 35.265,8.236 35.265,8.236 C35.671,8.236 36.000,8.571 36.000,8.983 C36.000,9.395 35.671,9.729 35.265,9.729 ZM31.565,6.469 C31.433,6.567 31.280,6.615 31.128,6.615 C30.903,6.615 30.681,6.511 30.537,6.313 C30.296,5.982 30.364,5.514 30.690,5.269 C30.690,5.269 32.668,3.780 32.668,3.780 C32.993,3.535 33.454,3.604 33.695,3.936 C33.937,4.267 33.868,4.735 33.542,4.980 C33.542,4.980 31.565,6.469 31.565,6.469 ZM23.182,22.701 C23.182,22.701 23.357,22.701 23.357,22.701 C23.762,22.701 24.091,23.035 24.091,23.447 C24.091,23.447 24.091,32.620 24.091,32.620 C24.091,33.032 23.762,33.366 23.357,33.366 C23.357,33.366 22.379,33.366 22.379,33.366 C22.379,33.366 22.379,35.254 22.379,35.254 C22.379,35.666 22.050,36.000 21.645,36.000 C21.645,36.000 14.355,36.000 14.355,36.000 C13.949,36.000 13.621,35.666 13.621,35.254 C13.621,35.254 13.621,33.366 13.621,33.366 C13.621,33.366 12.643,33.366 12.643,33.366 C12.238,33.366 11.909,33.032 11.909,32.620 C11.909,32.620 11.909,23.447 11.909,23.447 C11.909,23.035 12.238,22.701 12.643,22.701 C12.643,22.701 12.818,22.701 12.818,22.701 C12.841,21.403 12.836,19.706 11.931,18.786 C9.987,16.810 7.756,14.073 7.756,10.410 C7.756,4.670 12.351,-0.000 18.000,-0.000 C23.649,-0.000 28.244,4.670 28.244,10.410 C28.244,14.073 26.013,16.810 24.069,18.786 C23.164,19.706 23.159,21.403 23.182,22.701 ZM15.090,34.507 C15.090,34.507 20.910,34.507 20.910,34.507 C20.910,34.507 20.910,33.366 20.910,33.366 C20.910,33.366 15.090,33.366 15.090,33.366 C15.090,33.366 15.090,34.507 15.090,34.507 ZM13.378,28.770 C13.378,28.770 20.316,28.770 20.316,28.770 C20.722,28.770 21.051,29.104 21.051,29.516 C21.051,29.929 20.722,30.263 20.316,30.263 C20.316,30.263 13.378,30.263 13.378,30.263 C13.378,30.263 13.378,31.873 13.378,31.873 C13.378,31.873 22.622,31.873 22.622,31.873 C22.622,31.873 22.622,27.297 22.622,27.297 C22.622,27.297 16.030,27.297 16.030,27.297 C15.624,27.297 15.295,26.963 15.295,26.551 C15.295,26.138 15.624,25.804 16.030,25.804 C16.030,25.804 22.622,25.804 22.622,25.804 C22.622,25.804 22.622,24.194 22.622,24.194 C22.622,24.194 13.378,24.194 13.378,24.194 C13.378,24.194 13.378,28.770 13.378,28.770 ZM18.000,1.493 C13.161,1.493 9.225,5.493 9.225,10.410 C9.225,13.507 11.118,15.848 12.969,17.730 C14.298,19.080 14.314,21.210 14.287,22.701 C14.287,22.701 16.714,22.701 16.714,22.701 C16.714,22.701 13.958,14.423 13.958,14.423 C13.865,14.145 13.941,13.838 14.152,13.638 C14.363,13.438 14.669,13.382 14.936,13.494 C14.936,13.494 16.383,14.105 16.383,14.105 C16.383,14.105 17.432,12.298 17.432,12.298 C17.562,12.073 17.798,11.934 18.055,11.931 C18.312,11.926 18.551,12.060 18.687,12.280 C18.687,12.280 19.804,14.089 19.804,14.089 C19.804,14.089 21.036,13.507 21.036,13.507 C21.302,13.382 21.615,13.428 21.834,13.625 C22.053,13.822 22.135,14.132 22.045,14.415 C22.045,14.415 19.390,22.701 19.390,22.701 C19.390,22.701 21.712,22.701 21.712,22.701 C21.686,21.210 21.702,19.080 23.030,17.730 C24.882,15.848 26.775,13.507 26.775,10.410 C26.775,5.493 22.838,1.493 18.000,1.493 ZM18.051,22.057 C18.051,22.057 20.125,15.584 20.125,15.584 C20.125,15.584 19.836,15.721 19.836,15.721 C19.500,15.879 19.101,15.759 18.904,15.441 C18.904,15.441 18.084,14.113 18.084,14.113 C18.084,14.113 17.324,15.423 17.324,15.423 C17.138,15.744 16.748,15.876 16.409,15.733 C16.409,15.733 15.869,15.505 15.869,15.505 C15.869,15.505 18.051,22.057 18.051,22.057 ZM4.872,6.615 C4.720,6.615 4.567,6.567 4.435,6.469 C4.435,6.469 2.458,4.980 2.458,4.980 C2.132,4.735 2.063,4.267 2.305,3.936 C2.546,3.605 3.006,3.535 3.332,3.780 C3.332,3.780 5.310,5.269 5.310,5.269 C5.636,5.514 5.704,5.982 5.463,6.313 C5.319,6.511 5.097,6.615 4.872,6.615 ZM4.692,8.983 C4.692,9.395 4.363,9.729 3.957,9.729 C3.957,9.729 0.735,9.729 0.735,9.729 C0.329,9.729 -0.000,9.395 -0.000,8.983 C-0.000,8.571 0.329,8.236 0.735,8.236 C0.735,8.236 3.957,8.236 3.957,8.236 C4.363,8.236 4.692,8.571 4.692,8.983 ZM4.435,11.497 C4.761,11.252 5.221,11.321 5.463,11.653 C5.704,11.984 5.636,12.452 5.310,12.697 C5.310,12.697 3.332,14.185 3.332,14.185 C3.201,14.284 3.048,14.332 2.896,14.332 C2.671,14.332 2.449,14.227 2.305,14.030 C2.063,13.699 2.132,13.231 2.458,12.986 C2.458,12.986 4.435,11.497 4.435,11.497 ZM31.565,11.497 C31.565,11.497 33.542,12.986 33.542,12.986 C33.868,13.231 33.937,13.699 33.695,14.030 C33.551,14.228 33.329,14.332 33.104,14.332 C32.952,14.332 32.799,14.284 32.668,14.185 C32.668,14.185 30.690,12.697 30.690,12.697 C30.364,12.452 30.296,11.984 30.537,11.653 C30.779,11.321 31.239,11.252 31.565,11.497 Z" id="path-1" class="cls-2" fill-rule="evenodd"/>
</svg>
