<svg xmlns="http://www.w3.org/2000/svg" xmlns:xlink="http://www.w3.org/1999/xlink" preserveAspectRatio="xMidYMid" width="15" height="19" viewBox="0 0 15 19">
  <defs>
    <style>

      .cls-2 {
        fill: #5682b2;
      }
    </style>
  </defs>
  <path d="M7.590,18.609 C7.456,18.698 7.322,18.743 7.188,18.743 C7.054,18.743 6.920,18.698 6.786,18.609 C6.519,18.386 -0.001,13.429 -0.001,7.132 C-0.001,6.954 -0.001,6.775 -0.001,6.597 C0.267,2.042 3.929,-0.012 7.188,-0.012 C10.448,-0.012 14.110,2.042 14.378,6.597 C14.378,6.775 14.378,6.954 14.378,7.132 C14.378,13.429 7.858,18.430 7.590,18.609 ZM13.038,6.641 C12.815,2.935 9.957,1.283 7.188,1.283 C4.420,1.283 1.562,2.935 1.338,6.641 C1.338,6.775 1.338,6.954 1.338,7.088 C1.338,11.911 5.804,16.019 7.188,17.180 C8.573,16.019 13.038,11.866 13.038,7.088 C13.038,6.954 13.038,6.775 13.038,6.641 ZM7.188,10.392 C5.358,10.392 3.929,8.919 3.929,7.088 C3.929,5.257 5.402,3.783 7.188,3.783 C9.019,3.783 10.493,5.257 10.493,7.088 C10.493,8.919 9.019,10.392 7.188,10.392 ZM7.188,5.167 C6.117,5.167 5.268,6.061 5.268,7.132 C5.268,8.204 6.161,9.097 7.188,9.097 C8.260,9.097 9.153,8.204 9.153,7.132 C9.153,6.061 8.260,5.167 7.188,5.167 Z" id="path-1" class="cls-2" fill-rule="evenodd"/>
</svg>
