<svg xmlns="http://www.w3.org/2000/svg" xmlns:xlink="http://www.w3.org/1999/xlink" preserveAspectRatio="xMidYMid" width="12" height="19" viewBox="0 0 12 19">
  <defs>
    <style>

      .cls-2 {
        fill: #12aaeb;
      }
    </style>
  </defs>
  <path d="M6.825,15.586 C6.825,15.586 6.825,16.885 6.825,16.885 C6.825,16.885 7.766,16.885 7.766,16.885 C8.093,16.885 8.379,17.171 8.379,17.498 C8.379,17.825 8.093,18.111 7.766,18.111 C7.766,18.111 4.699,18.111 4.699,18.111 C4.372,18.111 4.086,17.825 4.086,17.498 C4.086,17.171 4.372,16.885 4.699,16.885 C4.699,16.885 5.599,16.885 5.599,16.885 C5.599,16.885 5.599,15.586 5.599,15.586 C2.452,15.274 -0.003,12.588 -0.003,9.360 C-0.003,9.033 0.283,8.747 0.610,8.747 C0.937,8.747 1.223,9.033 1.223,9.360 C1.223,12.100 3.472,14.349 6.212,14.349 C8.952,14.349 11.201,12.100 11.201,9.360 C11.201,9.033 11.487,8.747 11.814,8.747 C12.141,8.747 12.428,9.033 12.428,9.360 C12.428,12.588 9.972,15.274 6.825,15.586 ZM6.212,13.572 C3.881,13.572 2.000,11.691 2.000,9.360 C2.000,9.360 2.000,4.208 2.000,4.208 C2.000,1.877 3.881,-0.004 6.212,-0.004 C8.543,-0.004 10.424,1.877 10.424,4.208 C10.424,4.208 10.424,9.401 10.424,9.401 C10.424,11.691 8.543,13.572 6.212,13.572 ZM9.197,4.208 C9.197,2.532 7.848,1.223 6.212,1.223 C4.576,1.223 3.227,2.572 3.227,4.208 C3.227,4.208 3.227,9.401 3.227,9.401 C3.227,11.037 4.576,12.386 6.212,12.386 C7.848,12.386 9.197,11.037 9.197,9.401 C9.197,9.401 9.197,4.208 9.197,4.208 Z" id="path-1" class="cls-2" fill-rule="evenodd"/>
</svg>
