<svg xmlns="http://www.w3.org/2000/svg" xmlns:xlink="http://www.w3.org/1999/xlink" preserveAspectRatio="xMidYMid" width="16" height="16" viewBox="0 0 16 16">
  <defs>
    <style>

      .cls-2 {
        fill: #95acbc;
      }
    </style>
  </defs>
  <path d="M15.456,15.715 C15.456,15.715 0.561,15.715 0.561,15.715 C0.261,15.715 0.003,15.457 0.003,15.158 C0.003,14.859 0.248,14.601 0.561,14.601 C0.561,14.601 15.442,14.601 15.442,14.601 C15.755,14.601 16.014,14.859 16.014,15.158 C16.014,15.457 15.769,15.715 15.456,15.715 ZM3.581,12.711 C3.472,12.820 3.336,12.875 3.186,12.875 C3.186,12.875 0.547,12.888 0.547,12.888 C0.397,12.888 0.261,12.834 0.153,12.725 C0.044,12.616 -0.011,12.467 -0.011,12.317 C-0.011,12.317 0.003,9.667 0.003,9.667 C0.003,9.517 0.071,9.382 0.166,9.273 C0.166,9.273 7.457,2.001 7.457,2.001 C7.457,2.001 9.280,0.166 9.280,0.166 C9.511,-0.051 9.865,-0.051 10.083,0.166 C10.083,0.166 12.695,2.803 12.695,2.803 C12.912,3.034 12.912,3.388 12.695,3.605 C12.695,3.605 3.581,12.711 3.581,12.711 ZM1.132,9.912 C1.132,9.912 1.118,11.746 1.118,11.746 C1.118,11.746 2.968,11.733 2.968,11.733 C2.968,11.733 9.688,5.032 9.688,5.032 C9.688,5.032 7.852,3.197 7.852,3.197 C7.852,3.197 1.132,9.912 1.132,9.912 ZM9.688,1.362 C9.688,1.362 8.655,2.395 8.655,2.395 C8.655,2.395 10.491,4.230 10.491,4.230 C10.491,4.230 11.525,3.197 11.525,3.197 C11.525,3.197 9.688,1.362 9.688,1.362 Z" id="path-1" class="cls-2" fill-rule="evenodd"/>
</svg>
