<svg xmlns="http://www.w3.org/2000/svg" xmlns:xlink="http://www.w3.org/1999/xlink" preserveAspectRatio="xMidYMid" width="19" height="19" viewBox="0 0 19 19">
  <defs>
    <style>

      .cls-2 {
        fill: #12aaeb;
      }
    </style>
  </defs>
  <path d="M17.625,10.971 C17.292,10.971 17.001,10.679 17.001,10.346 C17.001,5.347 12.918,1.264 7.918,1.264 C7.585,1.264 7.293,0.972 7.293,0.639 C7.293,0.306 7.585,0.014 7.918,0.014 C13.626,0.014 18.250,4.639 18.250,10.346 C18.250,10.679 18.000,10.971 17.625,10.971 ZM4.669,10.055 C5.752,11.429 6.793,12.429 8.127,13.513 C8.127,13.513 8.168,13.554 8.168,13.554 C8.335,13.679 8.502,13.721 8.710,13.721 C8.876,13.679 9.043,13.554 9.168,13.388 C9.460,12.929 9.918,12.596 10.460,12.554 C11.001,12.471 11.543,12.679 11.918,13.054 C11.918,13.054 12.709,13.846 12.709,13.846 C13.584,14.721 13.626,16.221 12.709,17.095 C12.709,17.095 12.084,17.720 12.084,17.720 C11.668,18.179 11.085,18.429 10.501,18.429 C10.335,18.429 10.210,18.429 10.043,18.387 C7.335,17.845 5.294,16.096 3.835,14.637 C2.336,13.138 0.544,11.096 0.044,8.305 C-0.122,7.430 0.169,6.555 0.794,5.930 C0.794,5.930 1.169,5.555 1.169,5.555 C1.586,5.097 2.169,4.889 2.794,4.889 C3.419,4.889 4.002,5.139 4.419,5.555 C4.419,5.555 5.002,6.138 5.002,6.138 C5.419,6.555 5.627,7.180 5.585,7.763 C5.502,8.388 5.169,8.888 4.627,9.221 C4.502,9.305 4.460,9.388 4.419,9.513 C4.419,9.638 4.419,9.721 4.502,9.846 C4.502,9.846 4.669,10.055 4.669,10.055 ZM3.210,9.305 C3.294,8.846 3.585,8.430 4.002,8.180 C4.210,8.055 4.335,7.847 4.335,7.638 C4.377,7.430 4.294,7.180 4.127,7.013 C4.127,7.013 3.544,6.430 3.544,6.430 C3.335,6.222 3.044,6.097 2.794,6.097 C2.502,6.097 2.252,6.222 2.044,6.430 C2.044,6.430 1.669,6.805 1.669,6.805 C1.336,7.138 1.211,7.597 1.294,8.055 C1.752,10.513 3.377,12.388 4.752,13.721 C6.085,15.054 7.960,16.679 10.335,17.137 C10.668,17.221 11.043,17.095 11.293,16.845 C11.293,16.845 11.918,16.221 11.918,16.221 C12.334,15.804 12.334,15.137 11.918,14.721 C11.918,14.721 11.043,13.971 11.043,13.971 C10.918,13.846 10.793,13.804 10.626,13.804 C10.460,13.804 10.335,13.929 10.251,14.054 C9.960,14.554 9.501,14.887 8.960,14.971 C8.418,15.054 7.877,14.929 7.418,14.554 C7.418,14.554 7.377,14.513 7.377,14.513 C5.960,13.388 4.835,12.263 3.710,10.846 C3.710,10.846 3.544,10.638 3.544,10.638 C3.252,10.263 3.127,9.763 3.210,9.305 ZM7.918,4.930 C10.918,4.930 13.334,7.347 13.334,10.346 C13.334,10.679 13.043,10.971 12.709,10.971 C12.376,10.971 12.084,10.679 12.084,10.346 C12.084,8.055 10.210,6.180 7.918,6.180 C7.585,6.180 7.293,5.888 7.293,5.555 C7.293,5.222 7.585,4.930 7.918,4.930 ZM7.918,3.680 C7.585,3.680 7.293,3.389 7.293,3.055 C7.293,2.722 7.585,2.431 7.918,2.431 C12.293,2.431 15.834,5.972 15.834,10.346 C15.834,10.679 15.542,10.971 15.209,10.971 C14.876,10.971 14.584,10.679 14.584,10.346 C14.584,6.680 11.584,3.680 7.918,3.680 Z" id="path-1" class="cls-2" fill-rule="evenodd"/>
</svg>
