<svg xmlns="http://www.w3.org/2000/svg" xmlns:xlink="http://www.w3.org/1999/xlink" preserveAspectRatio="xMidYMid" width="14" height="12" viewBox="0 0 14 12">
  <defs>
    <style>

      .cls-2 {
        fill: #848484;
        filter: url(#color-overlay-1);
      }
    </style>

    <filter id="color-overlay-1" filterUnits="userSpaceOnUse">
      <feFlood flood-color="#95acbc" flood-opacity="1"/>
      <feComposite operator="in" in2="SourceGraphic"/>
      <feBlend mode="normal" in2="SourceGraphic" result="colorOverlay"/>
    </filter>
  </defs>
  <path d="M13.173,12.089 C13.173,12.089 9.783,12.089 9.783,12.089 C9.783,12.089 8.731,7.371 8.731,7.371 C8.731,7.371 2.605,7.371 2.605,7.371 C2.605,7.371 2.605,12.089 2.605,12.089 C2.605,12.089 0.010,12.089 0.010,12.089 C0.010,12.089 0.010,7.371 0.010,7.371 C0.010,7.371 0.010,4.729 0.010,4.729 C0.010,4.729 0.010,2.748 0.010,2.748 C0.010,2.748 0.010,0.011 0.010,0.011 C0.010,0.011 2.605,0.011 2.605,0.011 C2.605,0.011 10.531,0.011 10.531,0.011 C10.531,0.011 13.173,0.011 13.173,0.011 C13.173,0.011 13.173,2.748 13.173,2.748 C13.173,2.748 13.173,4.729 13.173,4.729 C13.173,4.729 13.173,7.371 13.173,7.371 C13.173,7.371 12.121,7.371 12.121,7.371 C12.121,7.371 13.173,12.089 13.173,12.089 ZM10.531,2.748 C10.531,2.748 2.605,2.748 2.605,2.748 C2.605,2.748 2.605,4.729 2.605,4.729 C2.605,4.729 10.531,4.729 10.531,4.729 C10.531,4.729 10.531,2.748 10.531,2.748 Z" id="path-1" class="cls-2" fill-rule="evenodd"/>
</svg>
