<svg xmlns="http://www.w3.org/2000/svg" xmlns:xlink="http://www.w3.org/1999/xlink" preserveAspectRatio="xMidYMid" width="24" height="24" viewBox="0 0 24 24">
  <defs>
    <style>

      .cls-2 {
        fill: #295786;
      }
    </style>
  </defs>
  <path d="M9.267,18.523 C11.526,18.523 13.580,17.723 15.182,16.367 C15.182,16.367 22.370,23.554 22.370,23.554 C22.534,23.719 22.740,23.801 22.965,23.801 C23.191,23.801 23.397,23.719 23.561,23.554 C23.890,23.226 23.890,22.692 23.561,22.363 C23.561,22.363 16.373,15.176 16.373,15.176 C17.708,13.575 18.529,11.501 18.529,9.262 C18.529,4.149 14.381,0.001 9.267,0.001 C4.173,0.001 0.004,4.170 0.004,9.262 C0.004,14.375 4.173,18.523 9.267,18.523 ZM9.267,1.685 C13.456,1.685 16.845,5.094 16.845,9.262 C16.845,13.452 13.456,16.840 9.267,16.840 C5.077,16.840 1.688,13.431 1.688,9.262 C1.688,5.094 5.097,1.685 9.267,1.685 Z" id="path-1" class="cls-2" fill-rule="evenodd"/>
</svg>
