<svg xmlns="http://www.w3.org/2000/svg" xmlns:xlink="http://www.w3.org/1999/xlink" preserveAspectRatio="xMidYMid" width="35" height="35" viewBox="0 0 35 35">
  <defs>
    <style>

      .cls-2 {
        fill: #00aeef;
      }
    </style>
  </defs>
  <path d="M31.800,21.597 C31.800,21.597 28.985,21.597 28.985,21.597 C28.848,21.980 28.692,22.357 28.517,22.724 C28.517,22.724 30.512,24.719 30.512,24.719 C31.115,25.322 31.448,26.124 31.448,26.978 C31.448,27.831 31.115,28.633 30.512,29.237 C30.512,29.237 29.240,30.509 29.240,30.509 C28.636,31.113 27.832,31.446 26.976,31.446 C26.119,31.446 25.315,31.113 24.712,30.509 C24.712,30.509 22.721,28.518 22.721,28.518 C22.354,28.693 21.979,28.848 21.599,28.985 C21.599,28.985 21.599,31.803 21.599,31.803 C21.599,32.656 21.267,33.458 20.663,34.062 C20.059,34.667 19.255,35.000 18.400,35.000 C18.400,35.000 18.399,35.000 18.399,35.000 C18.399,35.000 16.601,35.000 16.601,35.000 C14.836,35.000 13.400,33.566 13.400,31.803 C13.400,31.803 13.400,28.985 13.400,28.985 C13.020,28.848 12.645,28.693 12.279,28.518 C12.279,28.518 10.288,30.509 10.288,30.509 C9.684,31.114 8.880,31.447 8.024,31.447 C7.169,31.447 6.365,31.114 5.760,30.509 C5.760,30.509 4.488,29.237 4.488,29.237 C3.243,27.992 3.243,25.965 4.488,24.718 C4.488,24.718 6.482,22.724 6.482,22.724 C6.307,22.356 6.150,21.979 6.013,21.597 C6.013,21.597 3.200,21.596 3.200,21.596 C2.344,21.596 1.540,21.264 0.936,20.659 C0.332,20.055 -0.000,19.253 -0.000,18.400 C-0.000,18.400 -0.000,16.600 -0.000,16.600 C-0.000,14.838 1.435,13.404 3.200,13.403 C3.200,13.403 6.014,13.403 6.014,13.403 C6.150,13.021 6.307,12.644 6.482,12.276 C6.482,12.276 4.488,10.282 4.488,10.282 C3.885,9.678 3.552,8.876 3.552,8.023 C3.552,7.169 3.885,6.367 4.488,5.763 C4.488,5.763 5.760,4.491 5.760,4.491 C6.364,3.887 7.168,3.554 8.024,3.554 C8.880,3.554 9.684,3.887 10.288,4.491 C10.288,4.491 12.279,6.482 12.279,6.482 C12.646,6.308 13.020,6.152 13.401,6.016 C13.401,6.016 13.401,3.197 13.401,3.197 C13.400,1.434 14.836,0.000 16.600,0.000 C16.600,0.000 18.399,0.000 18.399,0.000 C20.164,0.000 21.599,1.434 21.599,3.197 C21.599,3.197 21.599,6.016 21.599,6.016 C21.980,6.152 22.355,6.308 22.721,6.482 C22.721,6.482 24.712,4.491 24.712,4.491 C25.316,3.886 26.120,3.553 26.975,3.553 C27.831,3.553 28.635,3.886 29.240,4.491 C29.240,4.491 30.511,5.763 30.511,5.763 C31.757,7.008 31.757,9.036 30.512,10.281 C30.512,10.281 28.517,12.277 28.517,12.277 C28.692,12.643 28.848,13.020 28.985,13.403 C28.985,13.403 31.800,13.404 31.800,13.404 C32.656,13.404 33.460,13.737 34.064,14.341 C34.667,14.945 35.000,15.747 35.000,16.600 C35.000,16.600 35.000,18.399 35.000,18.399 C35.000,20.162 33.565,21.596 31.800,21.597 ZM33.571,16.600 C33.571,16.125 33.387,15.679 33.051,15.344 C32.717,15.009 32.273,14.825 31.801,14.825 C31.801,14.825 28.470,14.825 28.470,14.825 C28.156,14.825 27.879,14.621 27.787,14.323 C27.589,13.682 27.330,13.058 27.017,12.469 C26.871,12.194 26.922,11.856 27.143,11.636 C27.143,11.636 29.499,9.279 29.499,9.279 C30.192,8.586 30.192,7.458 29.499,6.765 C29.499,6.765 28.227,5.494 28.227,5.494 C27.892,5.159 27.448,4.975 26.976,4.975 C26.503,4.975 26.059,5.159 25.725,5.493 C25.725,5.493 23.368,7.850 23.368,7.850 C23.146,8.073 22.804,8.124 22.526,7.976 C21.932,7.661 21.309,7.402 20.673,7.205 C20.374,7.113 20.171,6.838 20.171,6.527 C20.171,6.527 20.171,3.197 20.171,3.197 C20.171,2.218 19.376,1.422 18.399,1.422 C18.399,1.422 16.600,1.422 16.600,1.422 C15.624,1.422 14.829,2.218 14.829,3.197 C14.829,3.197 14.829,6.527 14.829,6.527 C14.829,6.838 14.626,7.113 14.327,7.205 C13.691,7.402 13.068,7.661 12.474,7.976 C12.196,8.123 11.854,8.072 11.632,7.850 C11.632,7.850 9.275,5.493 9.275,5.493 C8.942,5.160 8.498,4.976 8.024,4.976 C7.551,4.976 7.107,5.160 6.773,5.493 C6.773,5.493 5.501,6.766 5.501,6.766 C5.166,7.101 4.981,7.547 4.981,8.023 C4.981,8.497 5.166,8.944 5.501,9.279 C5.501,9.279 7.857,11.636 7.857,11.636 C8.078,11.856 8.128,12.194 7.983,12.469 C7.668,13.062 7.408,13.686 7.211,14.323 C7.119,14.621 6.842,14.825 6.529,14.825 C6.529,14.825 3.200,14.825 3.200,14.825 C2.223,14.825 1.428,15.621 1.428,16.600 C1.428,16.600 1.428,18.400 1.428,18.400 C1.428,18.875 1.613,19.321 1.949,19.656 C2.283,19.991 2.727,20.175 3.199,20.175 C3.199,20.175 6.529,20.175 6.529,20.175 C6.842,20.175 7.119,20.379 7.211,20.677 C7.408,21.313 7.668,21.937 7.983,22.531 C8.128,22.806 8.078,23.144 7.857,23.364 C7.857,23.364 5.501,25.721 5.501,25.721 C4.808,26.414 4.808,27.542 5.501,28.234 C5.501,28.234 6.773,29.507 6.773,29.507 C7.107,29.841 7.552,30.025 8.024,30.025 C8.497,30.025 8.941,29.841 9.275,29.507 C9.275,29.507 11.632,27.150 11.632,27.150 C11.769,27.012 11.952,26.940 12.138,26.940 C12.253,26.940 12.368,26.968 12.474,27.024 C13.068,27.339 13.691,27.598 14.327,27.795 C14.626,27.887 14.829,28.162 14.829,28.473 C14.829,28.473 14.829,31.803 14.829,31.803 C14.829,32.782 15.624,33.578 16.601,33.578 C16.601,33.578 18.399,33.578 18.399,33.578 C18.872,33.578 19.316,33.394 19.651,33.060 C19.986,32.724 20.171,32.278 20.171,31.803 C20.171,31.803 20.171,28.473 20.171,28.473 C20.171,28.162 20.374,27.887 20.673,27.795 C21.309,27.598 21.932,27.339 22.526,27.024 C22.804,26.877 23.146,26.928 23.368,27.150 C23.368,27.150 25.724,29.507 25.724,29.507 C26.058,29.840 26.502,30.024 26.976,30.024 C27.449,30.024 27.893,29.840 28.227,29.507 C28.227,29.507 29.499,28.234 29.499,28.234 C29.834,27.899 30.019,27.452 30.019,26.978 C30.019,26.503 29.834,26.056 29.499,25.721 C29.499,25.721 27.143,23.364 27.143,23.364 C26.922,23.144 26.871,22.806 27.017,22.531 C27.330,21.942 27.589,21.318 27.787,20.677 C27.879,20.378 28.156,20.175 28.470,20.175 C28.470,20.175 31.800,20.175 31.800,20.175 C32.777,20.175 33.571,19.378 33.571,18.399 C33.571,18.399 33.571,16.600 33.571,16.600 ZM17.516,24.866 C13.462,24.866 10.163,21.569 10.163,17.516 C10.163,13.463 13.462,10.166 17.516,10.166 C21.570,10.166 24.868,13.463 24.868,17.516 C24.868,21.569 21.570,24.866 17.516,24.866 ZM17.516,11.594 C14.253,11.594 11.599,14.251 11.599,17.516 C11.599,20.781 14.253,23.438 17.516,23.438 C20.778,23.438 23.432,20.781 23.432,17.516 C23.432,14.251 20.778,11.594 17.516,11.594 Z" id="path-1" class="cls-2" fill-rule="evenodd"/>
</svg>
