<svg xmlns="http://www.w3.org/2000/svg" xmlns:xlink="http://www.w3.org/1999/xlink" preserveAspectRatio="xMidYMid" width="22" height="18" viewBox="0 0 22 18">
  <defs>
    <style>

      .cls-2 {
        fill: #12aaeb;
      }
    </style>
  </defs>
  <path d="M21.133,8.832 C21.133,8.832 18.755,8.832 18.755,8.832 C18.755,8.832 18.755,11.196 18.755,11.196 C18.755,11.196 17.663,11.196 17.663,11.196 C17.663,11.196 17.663,8.832 17.663,8.832 C17.663,8.832 15.288,8.832 15.288,8.832 C15.288,8.832 15.288,7.740 15.288,7.740 C15.288,7.740 17.663,7.740 17.663,7.740 C17.663,7.740 17.663,5.350 17.663,5.350 C17.663,5.350 18.755,5.350 18.755,5.350 C18.755,5.350 18.755,7.740 18.755,7.740 C18.755,7.740 21.133,7.740 21.133,7.740 C21.133,7.740 21.133,8.832 21.133,8.832 ZM9.436,11.663 C10.819,11.663 11.958,12.785 11.958,14.184 C11.958,15.566 10.819,16.704 9.436,16.704 C8.053,16.704 6.914,15.582 6.914,14.184 C6.914,13.728 7.044,13.306 7.255,12.932 C7.255,12.932 3.773,10.521 3.773,10.521 C3.399,10.732 2.976,10.862 2.521,10.862 C1.138,10.862 -0.001,9.724 -0.001,8.342 C-0.001,6.959 1.121,5.821 2.521,5.821 C2.976,5.821 3.416,5.935 3.773,6.146 C3.773,6.146 7.255,3.768 7.255,3.768 C7.044,3.394 6.914,2.971 6.914,2.516 C6.914,1.133 8.053,-0.005 9.436,-0.005 C10.819,-0.005 11.958,1.133 11.958,2.516 C11.958,3.898 10.835,5.036 9.436,5.036 C8.980,5.036 8.557,4.906 8.183,4.695 C8.183,4.695 4.717,7.090 4.717,7.090 C4.929,7.464 5.059,7.886 5.059,8.342 C5.059,8.797 4.929,9.220 4.717,9.594 C4.717,9.594 8.183,12.005 8.183,12.005 C8.557,11.793 8.980,11.663 9.436,11.663 ZM9.452,15.403 C10.119,15.403 10.656,14.867 10.656,14.200 C10.656,13.533 10.119,12.997 9.452,12.997 C8.785,12.997 8.248,13.533 8.248,14.200 C8.248,14.867 8.785,15.403 9.452,15.403 ZM2.521,7.138 C1.870,7.138 1.317,7.675 1.317,8.342 C1.317,9.008 1.854,9.545 2.521,9.545 C3.188,9.545 3.725,9.008 3.725,8.342 C3.725,7.675 3.188,7.138 2.521,7.138 ZM9.452,3.703 C10.119,3.703 10.656,3.166 10.656,2.499 C10.656,1.833 10.119,1.296 9.452,1.296 C8.785,1.296 8.248,1.833 8.248,2.499 C8.248,3.166 8.785,3.703 9.452,3.703 Z" id="path-1" class="cls-2" fill-rule="evenodd"/>
</svg>
