<svg xmlns="http://www.w3.org/2000/svg" xmlns:xlink="http://www.w3.org/1999/xlink" preserveAspectRatio="xMidYMid" width="500" height="405" viewBox="0 0 500 405">
  <defs>
    <style>

      .cls-2 {
        fill: #000000;
      }
    </style>
  </defs>
  <path d="M486.211,6.732 C466.376,18.475 444.407,27.001 421.034,31.620 C402.327,11.657 375.689,-0.769 346.180,-0.769 C289.517,-0.769 243.591,45.146 243.591,101.736 C243.591,109.760 244.507,117.595 246.247,125.085 C161.007,120.815 85.421,79.990 34.830,17.972 C25.997,33.085 20.960,50.696 20.960,69.500 C20.960,105.078 39.086,136.459 66.580,154.819 C49.766,154.257 33.962,149.635 20.122,141.949 C20.122,141.949 20.122,143.230 20.122,143.230 C20.122,192.899 55.487,234.314 102.388,243.771 C93.799,246.088 84.737,247.369 75.369,247.369 C68.745,247.369 62.340,246.697 56.053,245.507 C69.114,286.226 106.982,315.870 151.852,316.723 C116.762,344.203 72.513,360.580 24.472,360.580 C16.185,360.580 8.024,360.093 -0.003,359.178 C45.404,388.244 99.292,405.231 157.238,405.231 C345.908,405.231 449.075,249.014 449.075,113.542 C449.075,113.542 448.740,100.259 448.740,100.259 C468.848,85.862 486.271,67.807 500.003,47.267 C481.602,55.409 461.861,60.946 441.110,63.416 C462.289,50.727 478.521,30.615 486.211,6.732 Z" id="path-1" class="cls-2" fill-rule="evenodd"/>
</svg>
