<svg xmlns="http://www.w3.org/2000/svg" xmlns:xlink="http://www.w3.org/1999/xlink" preserveAspectRatio="xMidYMid" width="18" height="18" viewBox="0 0 18 18">
  <defs>
    <style>

      .cls-2 {
        fill: #b5c5d0;
      }
    </style>
  </defs>
  <path d="M17.293,17.064 C17.293,17.064 0.627,17.064 0.627,17.064 C0.273,17.064 -0.007,16.784 -0.007,16.431 C-0.007,13.107 2.702,10.415 6.015,10.415 C6.015,10.415 11.904,10.415 11.904,10.415 C15.232,10.415 17.926,13.121 17.926,16.431 C17.926,16.784 17.646,17.064 17.293,17.064 ZM11.904,11.680 C11.904,11.680 6.015,11.680 6.015,11.680 C3.601,11.680 1.613,13.489 1.304,15.799 C1.304,15.799 16.616,15.799 16.616,15.799 C16.307,13.475 14.319,11.680 11.904,11.680 ZM8.930,9.576 C6.280,9.576 4.131,7.414 4.131,4.781 C4.131,2.148 6.280,-0.000 8.930,-0.000 C11.580,-0.000 13.730,2.133 13.730,4.781 C13.730,7.428 11.580,9.576 8.930,9.576 ZM8.930,1.250 C6.987,1.250 5.397,2.839 5.397,4.781 C5.397,6.723 6.987,8.311 8.930,8.311 C10.874,8.311 12.464,6.723 12.464,4.781 C12.464,2.839 10.874,1.250 8.930,1.250 Z" id="path-1" class="cls-2" fill-rule="evenodd"/>
</svg>
