<svg xmlns="http://www.w3.org/2000/svg" xmlns:xlink="http://www.w3.org/1999/xlink" preserveAspectRatio="xMidYMid" width="156" height="89" viewBox="0 0 156 89">
  <defs>
    <style>

      .cls-2 {
        fill: #000000;
      }
    </style>
  </defs>
  <path d="M155.662,80.490 C155.472,80.081 155.295,79.743 155.131,79.472 C152.417,74.581 147.228,68.579 139.570,61.464 C139.570,61.464 139.408,61.301 139.408,61.301 C139.408,61.301 139.327,61.222 139.327,61.222 C139.327,61.222 139.245,61.140 139.245,61.140 C139.245,61.140 139.163,61.140 139.163,61.140 C135.687,57.826 133.486,55.599 132.564,54.457 C130.877,52.285 130.500,50.085 131.421,47.857 C132.073,46.173 134.519,42.618 138.754,37.185 C140.982,34.306 142.747,31.998 144.049,30.260 C153.447,17.767 157.521,9.784 156.271,6.307 C156.271,6.307 155.786,5.494 155.786,5.494 C155.460,5.005 154.618,4.558 153.261,4.150 C151.902,3.743 150.165,3.675 148.045,3.947 C148.045,3.947 124.582,4.109 124.582,4.109 C124.202,3.974 123.659,3.987 122.952,4.150 C122.246,4.313 121.892,4.395 121.892,4.395 C121.892,4.395 121.484,4.599 121.484,4.599 C121.484,4.599 121.160,4.844 121.160,4.844 C120.888,5.006 120.589,5.291 120.263,5.698 C119.939,6.105 119.667,6.581 119.451,7.124 C116.896,13.697 113.992,19.807 110.732,25.455 C108.722,28.824 106.876,31.743 105.191,34.214 C103.507,36.685 102.095,38.505 100.956,39.672 C99.814,40.840 98.784,41.776 97.859,42.483 C96.935,43.190 96.230,43.488 95.742,43.379 C95.252,43.270 94.792,43.161 94.355,43.053 C93.595,42.564 92.984,41.899 92.523,41.057 C92.060,40.215 91.749,39.156 91.585,37.879 C91.423,36.602 91.328,35.503 91.300,34.579 C91.275,33.656 91.287,32.352 91.341,30.668 C91.398,28.984 91.423,27.844 91.423,27.246 C91.423,25.182 91.463,22.942 91.544,20.525 C91.627,18.108 91.693,16.193 91.749,14.782 C91.803,13.369 91.830,11.875 91.830,10.300 C91.830,8.725 91.734,7.489 91.544,6.593 C91.357,5.698 91.070,4.828 90.691,3.986 C90.310,3.144 89.752,2.493 89.021,2.031 C88.288,1.569 87.376,1.202 86.292,0.931 C83.413,0.279 79.747,-0.074 75.292,-0.129 C65.189,-0.236 58.698,0.415 55.819,1.827 C54.679,2.424 53.647,3.240 52.724,4.271 C51.746,5.466 51.609,6.118 52.315,6.226 C55.575,6.714 57.882,7.882 59.241,9.729 C59.241,9.729 59.730,10.707 59.730,10.707 C60.110,11.413 60.491,12.663 60.871,14.455 C61.251,16.247 61.496,18.230 61.604,20.402 C61.875,24.368 61.875,27.763 61.604,30.586 C61.332,33.411 61.075,35.611 60.830,37.186 C60.585,38.762 60.218,40.037 59.730,41.015 C59.241,41.992 58.915,42.590 58.752,42.807 C58.588,43.024 58.453,43.160 58.344,43.214 C57.639,43.485 56.904,43.622 56.145,43.622 C55.383,43.622 54.460,43.242 53.374,42.481 C52.289,41.721 51.162,40.675 49.994,39.344 C48.826,38.014 47.508,36.153 46.042,33.764 C44.576,31.373 43.055,28.549 41.480,25.290 C41.480,25.290 40.176,22.927 40.176,22.927 C39.361,21.407 38.249,19.193 36.836,16.287 C35.423,13.381 34.174,10.570 33.088,7.854 C32.654,6.713 32.002,5.846 31.133,5.247 C31.133,5.247 30.726,5.002 30.726,5.002 C30.455,4.785 30.020,4.556 29.422,4.310 C28.825,4.065 28.201,3.889 27.548,3.781 C27.548,3.781 5.225,3.943 5.225,3.943 C2.943,3.943 1.396,4.459 0.581,5.492 C0.581,5.492 0.254,5.980 0.254,5.980 C0.091,6.251 0.009,6.686 0.009,7.284 C0.009,7.881 0.172,8.615 0.499,9.483 C3.757,17.142 7.301,24.529 11.130,31.644 C14.960,38.759 18.287,44.490 21.110,48.833 C23.935,53.179 26.813,57.280 29.747,61.136 C32.680,64.992 34.622,67.464 35.571,68.550 C36.522,69.638 37.270,70.451 37.813,70.994 C37.813,70.994 39.850,72.950 39.850,72.950 C41.153,74.253 43.067,75.816 45.593,77.634 C48.120,79.454 50.917,81.246 53.985,83.013 C57.055,84.777 60.625,86.216 64.700,87.329 C68.773,88.445 72.738,88.892 76.594,88.675 C76.594,88.675 85.964,88.675 85.964,88.675 C87.865,88.511 89.304,87.913 90.283,86.882 C90.283,86.882 90.607,86.474 90.607,86.474 C90.825,86.150 91.029,85.646 91.217,84.968 C91.408,84.289 91.502,83.541 91.502,82.728 C91.447,80.394 91.625,78.288 92.031,76.414 C92.437,74.541 92.900,73.129 93.418,72.179 C93.935,71.228 94.519,70.426 95.168,69.777 C95.820,69.124 96.284,68.730 96.556,68.595 C96.827,68.457 97.042,68.364 97.206,68.310 C98.509,67.874 100.043,68.295 101.810,69.573 C103.576,70.849 105.232,72.425 106.781,74.298 C108.329,76.173 110.189,78.277 112.361,80.613 C114.535,82.947 116.435,84.685 118.064,85.826 C118.064,85.826 119.693,86.804 119.693,86.804 C120.781,87.456 122.193,88.054 123.931,88.597 C125.666,89.140 127.187,89.277 128.493,89.004 C128.493,89.004 149.349,88.679 149.349,88.679 C151.412,88.679 153.017,88.337 154.156,87.660 C155.296,86.982 155.974,86.234 156.193,85.419 C156.411,84.605 156.422,83.681 156.234,82.648 C156.042,81.618 155.851,80.898 155.662,80.490 Z" id="path-1" class="cls-2" fill-rule="evenodd"/>
</svg>
